<?xml version="1.0" standalone="no"?>
<!DOCTYPE svg PUBLIC "-//W3C//DTD SVG 1.1//EN" "http://www.w3.org/Graphics/SVG/1.1/DTD/svg11.dtd">
<svg t="1656909819410" class="icon" viewBox="0 0 1034 1024" version="1.1" xmlns="http://www.w3.org/2000/svg" p-id="8870" xmlns:xlink="http://www.w3.org/1999/xlink" width="201.953125" height="200">
<path d="M752.370526 174.618947l-265.880701-71.141052C347.800702 66.110877 204.8 148.749474 168.151579 287.438596l-68.985263 258.694737c-37.367018 138.689123 45.271579 281.689825 183.960702 318.338246l265.880701 71.141053c138.689123 37.367018 281.689825-45.271579 318.338246-183.960702l68.985263-258.694737c37.367018-138.689123-45.271579-280.971228-183.960702-318.338246z" fill="#f72231" opacity=".302" p-id="8871"></path>
<path d="M654.641404 147.312281h-258.694737c-135.09614 0-244.322807 109.226667-244.322807 244.322807v251.508772c0 135.09614 109.226667 244.322807 244.322807 244.322807h258.694737c135.09614 0 244.322807-109.226667 244.322807-244.322807v-251.508772c0-135.09614-109.226667-244.322807-244.322807-244.322807z" fill="#f72231" p-id="8872"></path>
<path d="M331.991579 360.735439v277.378245c0 25.150877 20.120702 45.990175 45.271579 45.990176v30.181052c0 16.527719 13.653333 30.181053 30.181053 30.181053h30.181052c16.527719 0 30.181053-13.653333 30.181053-30.181053v-30.181052h120.72421v30.181052c0 16.527719 13.653333 30.181053 30.181053 30.181053h30.181053c16.527719 0 30.181053-13.653333 30.181052-30.181053v-30.181052c25.150877 0 45.271579-20.120702 45.271579-45.990176V360.735439c0-96.29193-392.353684-96.29193-392.353684 0z m90.543158 273.785263c-22.995088 0-41.678596-18.683509-41.678597-41.678597 0-22.995088 18.683509-41.678596 41.678597-41.678596 22.995088 0 41.678596 18.683509 41.678596 41.678596-0.718596 22.995088-18.683509 41.678596-41.678596 41.678597z m211.267368 0c-22.995088 0-41.678596-18.683509-41.678596-41.678597 0-22.995088 18.683509-41.678596 41.678596-41.678596 22.995088 0 41.678596 18.683509 41.678597 41.678596-0.718596 22.995088-18.683509 41.678596-41.678597 41.678597z m45.271579-163.121404h-301.810526V395.22807c0-16.527719 13.653333-30.181053 30.181053-30.181052h241.448421c16.527719 0 30.181053 13.653333 30.181052 30.181052v76.171228z" fill="#FFFFFF" p-id="8873"></path>
</svg>