<?xml version="1.0" standalone="no"?><!DOCTYPE svg PUBLIC "-//W3C//DTD SVG 1.1//EN" "http://www.w3.org/Graphics/SVG/1.1/DTD/svg11.dtd"><svg t="1654960194832" class="icon" viewBox="0 0 1024 1024" version="1.1" xmlns="http://www.w3.org/2000/svg" p-id="3991" xmlns:xlink="http://www.w3.org/1999/xlink" width="200" height="200"><defs><style type="text/css">@font-face { font-family: feedback-iconfont; src: url("//at.alicdn.com/t/font_1031158_u69w8yhxdu.woff2?t=1630033759944") format("woff2"), url("//at.alicdn.com/t/font_1031158_u69w8yhxdu.woff?t=1630033759944") format("woff"), url("//at.alicdn.com/t/font_1031158_u69w8yhxdu.ttf?t=1630033759944") format("truetype"); }
</style></defs><path d="M296.62 763.75m-91.75 0a91.75 91.75 0 1 0 183.5 0 91.75 91.75 0 1 0-183.5 0Z" fill="#d81e06" p-id="3992"></path><path d="M725.68 763.75m-91.75 0a91.75 91.75 0 1 0 183.5 0 91.75 91.75 0 1 0-183.5 0Z" fill="#d81e06" p-id="3993"></path><path d="M169.51 324.51h92.75V456.6h-92.75zM414.24 324.51h92.75V456.6h-92.75zM658.26 324.51V456.6h186.07l-61.87-132.09h-124.2z" fill="#d81e06" p-id="3994"></path><path d="M957.13 470.05L841.7 223.64a89.64 89.64 0 0 0-80.88-51.42H156.75a89.41 89.41 0 0 0-89.32 89.31v412.9a89.42 89.42 0 0 0 89.32 89.32h11.68c-0.14-2.51-0.38-5-0.38-7.54 0-71.08 57.83-128.91 128.9-128.91a129.06 129.06 0 0 1 128.91 128.91c0 2.54-0.24 5-0.38 7.54h171.67c-0.15-2.51-0.38-5-0.38-7.54 0-71.08 57.82-128.91 128.9-128.91s128.9 57.83 128.9 128.91c0 2.54-0.23 5-0.38 7.54H870a89.41 89.41 0 0 0 89.31-89.32V480a23.38 23.38 0 0 0-2.18-9.95zM309 480a23.36 23.36 0 0 1-23.36 23.36h-139.5A23.36 23.36 0 0 1 122.78 480V301.15a23.36 23.36 0 0 1 23.36-23.37h139.48A23.36 23.36 0 0 1 309 301.15z m244.74 0a23.36 23.36 0 0 1-23.37 23.36H390.88A23.36 23.36 0 0 1 367.51 480V301.15a23.37 23.37 0 0 1 23.37-23.37h139.47a23.37 23.37 0 0 1 23.37 23.37z m347.07 12.53a23.36 23.36 0 0 1-19.72 10.83H634.9A23.36 23.36 0 0 1 611.54 480V301.15a23.36 23.36 0 0 1 23.36-23.37h162.41a23.37 23.37 0 0 1 21.16 13.46l83.76 178.81a23.37 23.37 0 0 1-1.44 22.44z" fill="#d81e06" p-id="3995"></path></svg>